STARTFONT 2.3
FONT -FontForge-Zen Loop-Book-R-Normal--32-320-72-72-P-102-ISO10646-1
SIZE 32 72 72  2
FONTBOUNDINGBOX 27 36 -3 -9
COMMENT "Generated by fontforge, http://fontforge.sourceforge.net"
COMMENT "Copyright 2021 The Zen-Loop Project Authors (https://github.com/googlefonts/zen-loop)"
STARTPROPERTIES 40
FOUNDRY "FontForge"
FAMILY_NAME "Zen Loop"
WEIGHT_NAME "Book"
SLANT "R"
SETWIDTH_NAME "Normal"
ADD_STYLE_NAME ""
PIXEL_SIZE 32
POINT_SIZE 320
RESOLUTION_X 72
RESOLUTION_Y 72
SPACING "P"
AVERAGE_WIDTH 102
CHARSET_REGISTRY "ISO10646"
CHARSET_ENCODING "1"
FONTNAME_REGISTRY ""
CHARSET_COLLECTIONS "ISO10646-1"
BITS_PER_PIXEL 2
FONT_NAME "ZenLoop-Regular"
FACE_NAME "Zen Loop Regular"
COPYRIGHT "Copyright 2021 The Zen-Loop Project Authors (https://github.com/googlefonts/zen-loop)"
FONT_VERSION "1.000; ttfautohint (v1.8.3)"
FONT_ASCENT 26
FONT_DESCENT 6
UNDERLINE_POSITION -5
UNDERLINE_THICKNESS 1
X_HEIGHT 14
CAP_HEIGHT 21
RAW_ASCENT 800
RAW_DESCENT 200
NORM_SPACE 8
RELATIVE_WEIGHT 40
RELATIVE_SETWIDTH 50
SUPERSCRIPT_X 0
SUPERSCRIPT_Y 11
SUPERSCRIPT_SIZE 19
SUBSCRIPT_X 0
SUBSCRIPT_Y 2
SUBSCRIPT_SIZE 19
AVG_LOWERCASE_WIDTH 93
AVG_UPPERCASE_WIDTH 122
ENDPROPERTIES
CHARS 248
STARTCHAR CR
ENCODING 13
SWIDTH 600 0
DWIDTH 19 0
BBX 1 1 0 0
BITMAP
00
ENDCHAR
STARTCHAR space
ENCODING 32
SWIDTH 240 0
DWIDTH 8 0
BBX 1 1 0 0
BITMAP
00
ENDCHAR
STARTCHAR exclam
ENCODING 33
SWIDTH 141 0
DWIDTH 5 0
BBX 1 22 2 0
BITMAP
80
80
80
80
80
80
80
80
80
80
80
80
80
80
80
80
40
00
00
80
80
80
ENDCHAR
STARTCHAR quotedbl
ENCODING 34
SWIDTH 195 0
DWIDTH 6 0
BBX 4 6 1 16
BITMAP
52
52
52
52
52
52
ENDCHAR
STARTCHAR numbersign
ENCODING 35
SWIDTH 454 0
DWIDTH 15 0
BBX 14 22 0 0
BITMAP
00080100
00080200
00140200
00140200
00200500
00200500
00200800
0ABAAEA0
00500800
00800800
00801400
00802400
00802000
01402000
6BAABA40
02005000
02005000
02008000
06008000
05008000
08008000
08014000
ENDCHAR
STARTCHAR dollar
ENCODING 36
SWIDTH 356 0
DWIDTH 11 0
BBX 11 28 0 -3
BITMAP
001000
002000
002000
01BA00
062180
082050
142010
202000
202000
142000
082000
022000
00A000
002400
002600
002180
002020
002020
002014
502014
202024
242020
092190
01FA00
002000
002000
002000
001000
ENDCHAR
STARTCHAR percent
ENCODING 37
SWIDTH 470 0
DWIDTH 15 0
BBX 13 22 1 0
BITMAP
1A800500
20600800
50201400
80142000
80142000
80148000
90148000
60214000
24620000
0A850000
00080000
00080000
0014A800
00224600
00520140
00850080
00850080
02050080
02050080
05020140
08024200
0400A900
ENDCHAR
STARTCHAR ampersand
ENCODING 38
SWIDTH 520 0
DWIDTH 17 0
BBX 15 22 1 0
BITMAP
001A4000
00609000
00905000
00806000
00805000
00809000
00808000
00920000
00590000
00340000
00A00000
02540290
09080920
14080800
20061400
50022000
8001A000
80009000
8000A000
60024800
24090240
0AA400A4
ENDCHAR
STARTCHAR quotesingle
ENCODING 39
SWIDTH 121 0
DWIDTH 4 0
BBX 2 6 1 16
BITMAP
50
50
50
50
50
50
ENDCHAR
STARTCHAR parenleft
ENCODING 40
SWIDTH 233 0
DWIDTH 7 0
BBX 5 26 2 -2
BITMAP
0140
0200
0500
0800
1800
2400
2000
2000
5000
5000
8000
8000
8000
8000
8000
8000
5000
5000
2000
2000
2000
1800
0800
0500
0200
0140
ENDCHAR
STARTCHAR parenright
ENCODING 41
SWIDTH 233 0
DWIDTH 7 0
BBX 5 26 1 -2
BITMAP
8000
5000
2000
1400
0800
0800
0500
0600
0200
0200
0200
0200
0140
0140
0200
0200
0200
0200
0600
0500
0800
0800
1400
2000
5000
8000
ENDCHAR
STARTCHAR asterisk
ENCODING 42
SWIDTH 313 0
DWIDTH 10 0
BBX 8 7 1 15
BITMAP
0140
0140
5145
1AA4
0280
0960
1414
ENDCHAR
STARTCHAR plus
ENCODING 43
SWIDTH 577 0
DWIDTH 18 0
BBX 16 15 1 0
BITMAP
00008000
00008000
00008000
00008000
00008000
00008000
00008000
6AAAEAAA
00008000
00008000
00008000
00008000
00008000
00008000
00008000
ENDCHAR
STARTCHAR comma
ENCODING 44
SWIDTH 145 0
DWIDTH 5 0
BBX 3 6 0 -3
BITMAP
08
08
08
08
18
60
ENDCHAR
STARTCHAR hyphen
ENCODING 45
SWIDTH 286 0
DWIDTH 9 0
BBX 7 1 1 9
BITMAP
6AA8
ENDCHAR
STARTCHAR period
ENCODING 46
SWIDTH 181 0
DWIDTH 6 0
BBX 2 3 2 0
BITMAP
50
50
50
ENDCHAR
STARTCHAR slash
ENCODING 47
SWIDTH 292 0
DWIDTH 9 0
BBX 9 26 0 -2
BITMAP
000040
000080
000080
000140
000200
000200
000500
000800
000800
001400
002000
002000
005000
008000
008000
014000
020000
020000
050000
080000
080000
140000
200000
200000
500000
800000
ENDCHAR
STARTCHAR zero
ENCODING 48
SWIDTH 378 0
DWIDTH 12 0
BBX 10 22 1 0
BITMAP
02A800
090600
180140
200080
200080
600050
500050
900020
800020
800020
800020
800020
800020
800020
900020
500050
600050
200080
200080
180140
090600
02A800
ENDCHAR
STARTCHAR one
ENCODING 49
SWIDTH 303 0
DWIDTH 10 0
BBX 8 22 1 0
BITMAP
0640
6540
0140
0140
0140
0140
0140
0140
0140
0140
0140
0140
0140
0140
0140
0140
0140
0140
0140
0140
0140
ABEA
ENDCHAR
STARTCHAR two
ENCODING 50
SWIDTH 343 0
DWIDTH 11 0
BBX 10 22 0 0
BITMAP
01AA00
090180
180090
100060
000020
000020
000020
000050
000080
000080
000200
000500
001800
002000
008000
014000
060000
080000
140000
200000
500000
7AAAA0
ENDCHAR
STARTCHAR three
ENCODING 51
SWIDTH 377 0
DWIDTH 12 0
BBX 10 22 1 0
BITMAP
02A800
090600
240140
100080
000080
000080
000080
000140
000200
06AA00
082A00
0A9080
000090
000020
000020
000020
000020
000060
000090
400080
600600
1AA800
ENDCHAR
STARTCHAR four
ENCODING 52
SWIDTH 389 0
DWIDTH 12 0
BBX 11 22 1 0
BITMAP
000500
000800
000800
002000
002000
009000
008000
014200
020200
050200
080200
140200
200200
600200
800200
AAABA4
000200
000200
000200
000200
000200
000200
ENDCHAR
STARTCHAR five
ENCODING 53
SWIDTH 372 0
DWIDTH 12 0
BBX 10 23 1 0
BITMAP
000090
0AAA40
080000
080000
080000
080000
080000
080000
080000
080000
0AA400
2C0600
580180
880090
640020
000020
000020
000020
000060
000090
400080
600600
1AA800
ENDCHAR
STARTCHAR six
ENCODING 54
SWIDTH 360 0
DWIDTH 12 0
BBX 10 22 1 0
BITMAP
001800
006000
008000
024000
060000
080000
080000
240000
200000
200000
51A900
9A0240
840080
800050
800050
800020
800050
500050
200080
200180
180600
06A800
ENDCHAR
STARTCHAR seven
ENCODING 55
SWIDTH 321 0
DWIDTH 10 0
BBX 8 22 1 0
BITMAP
AAAB
0002
0005
0008
0008
0014
0020
0020
0050
0080
0080
0140
0200
0200
0500
0800
0800
1800
2400
2000
6000
5000
ENDCHAR
STARTCHAR eight
ENCODING 56
SWIDTH 377 0
DWIDTH 12 0
BBX 10 22 1 0
BITMAP
06A900
180240
200080
600050
500050
500050
200080
240080
080200
025800
00F000
065900
080200
200080
500050
800020
800020
800020
500050
200080
180240
06A900
ENDCHAR
STARTCHAR nine
ENCODING 57
SWIDTH 360 0
DWIDTH 12 0
BBX 10 22 1 0
BITMAP
06A400
180600
200240
900080
800080
800080
800090
800050
800090
500180
241880
0AA080
000080
000140
000200
000200
000900
000800
002000
005000
018000
060000
ENDCHAR
STARTCHAR colon
ENCODING 58
SWIDTH 181 0
DWIDTH 6 0
BBX 2 15 2 0
BITMAP
50
50
50
00
00
00
00
00
00
00
00
00
50
50
50
ENDCHAR
STARTCHAR semicolon
ENCODING 59
SWIDTH 165 0
DWIDTH 5 0
BBX 3 18 0 -3
BITMAP
08
08
08
00
00
00
00
00
00
00
00
00
08
08
08
08
18
60
ENDCHAR
STARTCHAR less
ENCODING 60
SWIDTH 482 0
DWIDTH 15 0
BBX 13 13 1 1
BITMAP
00000140
00001900
00019000
00190000
01900000
19000000
74000000
0A400000
00A40000
000A4000
0000A400
00000A40
00000040
ENDCHAR
STARTCHAR equal
ENCODING 61
SWIDTH 577 0
DWIDTH 18 0
BBX 16 6 1 5
BITMAP
6AAAAAAA
00000000
00000000
00000000
00000000
6AAAAAAA
ENDCHAR
STARTCHAR greater
ENCODING 62
SWIDTH 482 0
DWIDTH 15 0
BBX 13 13 1 1
BITMAP
50000000
19000000
01900000
00190000
00029000
00002900
00000280
00001A00
0001A000
001A0000
01A00000
1A000000
60000000
ENDCHAR
STARTCHAR question
ENCODING 63
SWIDTH 300 0
DWIDTH 10 0
BBX 7 22 1 0
BITMAP
1A90
6024
8008
0008
0008
0008
0014
0020
0090
0180
0200
0500
0800
0800
0800
0600
0000
0000
0000
0100
0200
0100
ENDCHAR
STARTCHAR at
ENCODING 64
SWIDTH 748 0
DWIDTH 24 0
BBX 22 22 1 0
BITMAP
0001AAA90000
001900069000
009000002400
020001A00900
080006180240
140008080080
200020080080
600050080050
500080000020
800140000020
800201900020
800202500050
800509500080
500808800080
60080A400200
20080A000900
14080A006400
080821AA4000
020280000000
009000000500
00190001A400
0001AAA94000
ENDCHAR
STARTCHAR A
ENCODING 65
SWIDTH 414 0
DWIDTH 13 0
BBX 13 22 0 0
BITMAP
00080000
000D0000
001A0000
00220000
00220000
00214000
00508000
00808000
00809000
01805000
01402000
02002000
02002400
07AAA800
09000800
08000800
08000500
14000200
20000200
20000240
60000140
50000080
ENDCHAR
STARTCHAR B
ENCODING 66
SWIDTH 375 0
DWIDTH 12 0
BBX 9 22 2 0
BITMAP
EA9000
801800
800900
800200
800200
800200
800200
800200
800200
8A9200
982900
86A900
800200
800200
800140
800140
800140
800240
800200
800500
801800
EA9000
ENDCHAR
STARTCHAR C
ENCODING 67
SWIDTH 366 0
DWIDTH 12 0
BBX 10 22 1 0
BITMAP
00AA40
064050
080000
140000
200000
200000
500000
500000
800000
800000
800000
800000
800000
800000
500000
500000
200000
200000
140000
080000
064050
00AA40
ENDCHAR
STARTCHAR D
ENCODING 68
SWIDTH 396 0
DWIDTH 13 0
BBX 10 22 2 0
BITMAP
EAA000
801900
800200
800140
800080
800080
800080
800090
800050
800050
800050
800050
800050
800050
800090
800080
800080
800080
800240
800200
801900
EAA000
ENDCHAR
STARTCHAR E
ENCODING 69
SWIDTH 309 0
DWIDTH 10 0
BBX 7 22 2 0
BITMAP
EAA4
8000
8000
8000
8000
8000
8000
8000
8000
8000
EAA0
8000
8000
8000
8000
8000
8000
8000
8000
8000
8000
EAA4
ENDCHAR
STARTCHAR F
ENCODING 70
SWIDTH 299 0
DWIDTH 10 0
BBX 7 22 2 0
BITMAP
EAA4
8000
8000
8000
8000
8000
8000
8000
8000
8000
EAA0
8000
8000
8000
8000
8000
8000
8000
8000
8000
8000
8000
ENDCHAR
STARTCHAR G
ENCODING 71
SWIDTH 382 0
DWIDTH 12 0
BBX 10 22 1 0
BITMAP
00AA40
064050
080000
140000
200000
200000
500000
500000
800000
800000
800000
800000
801AA0
800020
500020
500020
200020
200020
140020
080020
064060
00AA40
ENDCHAR
STARTCHAR H
ENCODING 72
SWIDTH 425 0
DWIDTH 14 0
BBX 10 22 2 0
BITMAP
800020
800020
800020
800020
800020
800020
800020
800020
800020
800020
EAAAA0
800020
800020
800020
800020
800020
800020
800020
800020
800020
800020
800020
ENDCHAR
STARTCHAR I
ENCODING 73
SWIDTH 141 0
DWIDTH 5 0
BBX 1 22 2 0
BITMAP
80
80
80
80
80
80
80
80
80
80
80
80
80
80
80
80
80
80
80
80
80
80
ENDCHAR
STARTCHAR J
ENCODING 74
SWIDTH 142 0
DWIDTH 5 0
BBX 6 28 -3 -6
BITMAP
0020
0020
0020
0020
0020
0020
0020
0020
0020
0020
0020
0020
0020
0020
0020
0020
0020
0020
0020
0020
0020
0020
0020
0020
0050
0080
0240
6900
ENDCHAR
STARTCHAR K
ENCODING 75
SWIDTH 401 0
DWIDTH 13 0
BBX 12 22 0 0
BITMAP
050009
050014
050020
050050
050080
050080
050140
050200
050500
1BA800
956A00
AA4180
050090
050020
050020
050014
050014
050008
050008
050008
050005
050001
ENDCHAR
STARTCHAR L
ENCODING 76
SWIDTH 347 0
DWIDTH 11 0
BBX 8 22 2 0
BITMAP
8000
8000
8000
8000
8000
8000
8000
8000
8000
8000
8000
8000
8000
8000
8000
8000
8000
8000
8000
8000
8000
EAAA
ENDCHAR
STARTCHAR M
ENCODING 77
SWIDTH 534 0
DWIDTH 17 0
BBX 15 22 1 0
BITMAP
08000080
1A000290
15900950
14246050
14098050
14034020
20098020
20088020
20088020
20088020
20058020
20030020
20034020
20058020
20088020
20088014
50064014
50000014
50000014
50000014
50000008
80000008
ENDCHAR
STARTCHAR N
ENCODING 78
SWIDTH 422 0
DWIDTH 14 0
BBX 10 22 2 0
BITMAP
800020
C00020
E00020
A00020
940020
880020
890020
820020
820020
814020
808020
805020
802020
802020
801820
800820
800520
800220
800160
8000A0
8000A0
800060
ENDCHAR
STARTCHAR O
ENCODING 79
SWIDTH 446 0
DWIDTH 14 0
BBX 12 22 1 0
BITMAP
01AA40
064090
080024
140008
200008
200005
500002
500002
800002
800002
800002
800002
800002
800002
500002
500002
200005
200008
140008
080024
060090
01AA40
ENDCHAR
STARTCHAR P
ENCODING 80
SWIDTH 341 0
DWIDTH 11 0
BBX 8 22 2 0
BITMAP
EAA0
8018
8009
8002
8002
8002
8002
8002
8005
8008
8064
AA80
8000
8000
8000
8000
8000
8000
8000
8000
8000
8000
ENDCHAR
STARTCHAR Q
ENCODING 81
SWIDTH 446 0
DWIDTH 14 0
BBX 12 31 1 -9
BITMAP
01AA40
064090
080024
140008
200008
200005
500002
500002
800002
800002
800002
800002
800002
900002
A4000A
560026
618185
206608
241C08
082524
066290
01FB40
006200
002500
001C00
001C00
002900
002500
002500
002900
000400
ENDCHAR
STARTCHAR R
ENCODING 82
SWIDTH 380 0
DWIDTH 12 0
BBX 12 22 0 0
BITMAP
0EAA00
080080
080060
080020
080020
080024
080020
080020
080020
6E9080
981A40
1EA600
080080
080090
080020
080020
080020
080014
080008
080008
080008
040005
ENDCHAR
STARTCHAR S
ENCODING 83
SWIDTH 356 0
DWIDTH 11 0
BBX 11 22 0 0
BITMAP
01AA00
0A0180
180060
240010
200000
200000
140000
080000
060000
018000
006000
000800
000240
000090
000020
000024
000014
500014
200014
240020
090190
01AA00
ENDCHAR
STARTCHAR T
ENCODING 84
SWIDTH 377 0
DWIDTH 12 0
BBX 12 22 0 0
BITMAP
6AAEAA
001400
001400
001400
001400
001400
001400
001400
001400
001400
001400
001400
001400
001400
001400
001400
001400
001400
001400
001400
001400
001400
ENDCHAR
STARTCHAR U
ENCODING 85
SWIDTH 412 0
DWIDTH 13 0
BBX 11 22 1 0
BITMAP
500008
500008
500008
500008
500008
500008
500008
500008
500008
500008
500008
500008
500008
500008
500008
500008
500008
500008
500014
200020
190090
06AA40
ENDCHAR
STARTCHAR V
ENCODING 86
SWIDTH 384 0
DWIDTH 12 0
BBX 12 22 0 0
BITMAP
500002
500006
200005
200008
140008
140008
080014
080020
050020
050020
020050
020080
014080
014080
008140
008200
008200
005200
002500
002800
002800
001400
ENDCHAR
STARTCHAR W
ENCODING 87
SWIDTH 534 0
DWIDTH 17 0
BBX 15 22 1 0
BITMAP
80000008
50000008
50000014
50000014
50000014
50000014
20000014
20064020
20088020
20088020
20088020
20088020
20054020
20030020
20030020
20068020
14088020
14202050
14501850
15800950
1A000290
08000080
ENDCHAR
STARTCHAR X
ENCODING 88
SWIDTH 318 0
DWIDTH 10 0
BBX 10 22 0 0
BITMAP
200040
200080
140140
080200
050200
020500
020800
015800
00A000
00A000
006000
00A000
009400
024800
020800
050500
080200
080140
140080
200080
500050
800020
ENDCHAR
STARTCHAR Y
ENCODING 89
SWIDTH 370 0
DWIDTH 12 0
BBX 12 22 0 0
BITMAP
800005
600008
200008
140020
080020
050050
020080
024140
008200
008500
006800
002800
001400
001400
001400
001400
001400
001400
001400
001400
001400
001400
ENDCHAR
STARTCHAR Z
ENCODING 90
SWIDTH 309 0
DWIDTH 10 0
BBX 10 22 0 0
BITMAP
2AAAC0
000080
000140
000200
000200
000500
000800
001400
002000
002000
005000
008000
008000
010000
020000
050000
080000
080000
140000
200000
200000
6AAA90
ENDCHAR
STARTCHAR bracketleft
ENCODING 91
SWIDTH 193 0
DWIDTH 6 0
BBX 4 26 2 -2
BITMAP
AA
80
80
80
80
80
80
80
80
80
80
80
80
80
80
80
80
80
80
80
80
80
80
80
80
AA
ENDCHAR
STARTCHAR backslash
ENCODING 92
SWIDTH 292 0
DWIDTH 9 0
BBX 9 26 0 -2
BITMAP
400000
800000
500000
200000
200000
140000
080000
080000
050000
020000
020000
014000
008000
008000
005000
002000
002000
001400
000800
000800
000500
000200
000200
000140
000080
000080
ENDCHAR
STARTCHAR bracketright
ENCODING 93
SWIDTH 193 0
DWIDTH 6 0
BBX 5 26 0 -2
BITMAP
AA40
0140
0140
0140
0140
0140
0140
0140
0140
0140
0140
0140
0140
0140
0140
0140
0140
0140
0140
0140
0140
0140
0140
0140
0140
AA40
ENDCHAR
STARTCHAR asciicircum
ENCODING 94
SWIDTH 416 0
DWIDTH 13 0
BBX 13 12 0 10
BITMAP
00090000
001A0000
00220000
00508000
00808000
01402000
02002000
05000800
08000800
14000200
20000200
50000080
ENDCHAR
STARTCHAR underscore
ENCODING 95
SWIDTH 556 0
DWIDTH 18 0
BBX 16 1 1 -1
BITMAP
6AAAAAA9
ENDCHAR
STARTCHAR grave
ENCODING 96
SWIDTH 201 0
DWIDTH 6 0
BBX 3 4 2 17
BITMAP
40
90
20
14
ENDCHAR
STARTCHAR a
ENCODING 97
SWIDTH 315 0
DWIDTH 10 0
BBX 8 15 1 0
BITMAP
0A90
2424
5014
0008
0008
0008
0018
0298
1908
6008
8008
8008
8018
9068
2A4A
ENDCHAR
STARTCHAR b
ENCODING 98
SWIDTH 298 0
DWIDTH 10 0
BBX 7 22 2 0
BITMAP
8000
8000
8000
8000
8000
8000
8000
9A40
D080
8060
8020
8020
8020
8014
8014
8014
8020
8020
8020
8060
D080
9A40
ENDCHAR
STARTCHAR c
ENCODING 99
SWIDTH 275 0
DWIDTH 9 0
BBX 7 15 1 0
BITMAP
0690
1824
2008
6004
5000
8000
8000
8000
8000
8000
5000
6004
2008
1824
0690
ENDCHAR
STARTCHAR d
ENCODING 100
SWIDTH 298 0
DWIDTH 10 0
BBX 7 22 1 0
BITMAP
0008
0008
0008
0008
0008
0008
0008
0A98
2428
2018
5008
5008
8008
8008
8008
8008
8008
5008
5008
2008
2428
0A98
ENDCHAR
STARTCHAR e
ENCODING 101
SWIDTH 285 0
DWIDTH 9 0
BBX 7 15 1 0
BITMAP
0690
1820
2018
6008
5008
8008
AAA8
8000
8000
8000
5000
6004
2008
1824
0690
ENDCHAR
STARTCHAR f
ENCODING 102
SWIDTH 178 0
DWIDTH 6 0
BBX 8 22 0 0
BITMAP
0069
0240
0500
0800
0800
0800
0800
AE90
0800
0800
0800
0800
0800
0800
0800
0800
0800
0800
0800
0800
0800
0800
ENDCHAR
STARTCHAR g
ENCODING 103
SWIDTH 302 0
DWIDTH 10 0
BBX 10 23 0 -6
BITMAP
000100
000600
02A800
050900
080200
140200
140240
140140
140200
180200
080200
060900
06E400
180000
140000
0A4000
106A00
900080
800020
800020
800060
640180
0AA900
ENDCHAR
STARTCHAR h
ENCODING 104
SWIDTH 307 0
DWIDTH 10 0
BBX 7 22 2 0
BITMAP
8000
8000
8000
8000
8000
8000
8000
9A90
A020
C020
8014
8014
8014
8014
8014
8014
8014
8014
8014
8014
8014
8014
ENDCHAR
STARTCHAR i
ENCODING 105
SWIDTH 141 0
DWIDTH 5 0
BBX 1 21 2 0
BITMAP
80
80
80
80
00
00
80
80
80
80
80
80
80
80
80
80
80
80
80
80
80
ENDCHAR
STARTCHAR j
ENCODING 106
SWIDTH 141 0
DWIDTH 5 0
BBX 6 27 -3 -6
BITMAP
0020
0020
0020
0020
0000
0000
0020
0020
0020
0020
0020
0020
0020
0020
0020
0020
0020
0020
0020
0020
0020
0020
0020
0050
0090
0180
6900
ENDCHAR
STARTCHAR k
ENCODING 107
SWIDTH 287 0
DWIDTH 9 0
BBX 7 22 2 0
BITMAP
8000
8000
8000
8000
8000
8000
8000
8010
8060
8080
8200
8500
9D00
A200
C200
8140
8080
8080
8050
8020
8020
8014
ENDCHAR
STARTCHAR l
ENCODING 108
SWIDTH 141 0
DWIDTH 5 0
BBX 1 22 2 0
BITMAP
80
80
80
80
80
80
80
80
80
80
80
80
80
80
80
80
80
80
80
80
80
80
ENDCHAR
STARTCHAR m
ENCODING 109
SWIDTH 407 0
DWIDTH 13 0
BBX 10 15 2 0
BITMAP
D00090
A80650
861850
81A050
80D050
81A050
816050
826050
816050
809050
800050
800050
800050
800050
800050
ENDCHAR
STARTCHAR n
ENCODING 110
SWIDTH 307 0
DWIDTH 10 0
BBX 7 15 2 0
BITMAP
9A90
A020
C020
8014
8014
8014
8014
8014
8014
8014
8014
8014
8014
8014
8014
ENDCHAR
STARTCHAR o
ENCODING 111
SWIDTH 309 0
DWIDTH 10 0
BBX 8 15 1 0
BITMAP
0690
1824
2008
6008
5005
8005
8002
8002
8002
8005
5005
6008
2008
1824
0690
ENDCHAR
STARTCHAR p
ENCODING 112
SWIDTH 299 0
DWIDTH 10 0
BBX 9 23 0 -6
BITMAP
040000
080000
0EA400
680800
080200
080200
080200
080240
080140
080140
080140
080240
080200
080200
080200
0D0800
09A400
080000
080000
080000
080000
080000
080000
ENDCHAR
STARTCHAR q
ENCODING 113
SWIDTH 286 0
DWIDTH 9 0
BBX 8 21 1 -6
BITMAP
0A98
2428
2018
5008
5008
8008
8008
8008
8008
8008
5008
5008
2008
2428
0A98
0008
0008
0008
0008
0008
0006
ENDCHAR
STARTCHAR r
ENCODING 114
SWIDTH 277 0
DWIDTH 9 0
BBX 7 15 2 0
BITMAP
9A80
A020
8020
8014
8000
8000
8000
8000
8000
8000
8000
8000
8000
8000
8000
ENDCHAR
STARTCHAR s
ENCODING 115
SWIDTH 257 0
DWIDTH 8 0
BBX 7 15 1 0
BITMAP
1A80
6060
8010
8000
5000
2000
1800
0200
0080
0020
0014
0014
8014
9020
2A80
ENDCHAR
STARTCHAR t
ENCODING 116
SWIDTH 207 0
DWIDTH 7 0
BBX 6 19 0 0
BITMAP
0500
0500
0500
0500
AFA0
0500
0500
0500
0500
0500
0500
0500
0500
0500
0500
0500
0500
0200
0190
ENDCHAR
STARTCHAR u
ENCODING 117
SWIDTH 307 0
DWIDTH 10 0
BBX 7 15 1 0
BITMAP
5008
5008
5008
5008
5008
5008
5008
5008
5008
5008
5008
5008
5008
2028
1A88
ENDCHAR
STARTCHAR v
ENCODING 118
SWIDTH 285 0
DWIDTH 9 0
BBX 9 15 0 0
BITMAP
500140
200140
200200
200200
140500
080500
080800
080800
051400
021400
022000
022000
019000
00D000
008000
ENDCHAR
STARTCHAR w
ENCODING 119
SWIDTH 396 0
DWIDTH 13 0
BBX 11 15 1 0
BITMAP
800008
800008
800008
806014
809414
808814
909424
509420
507020
507020
20A420
214820
220220
2801A0
240090
ENDCHAR
STARTCHAR x
ENCODING 120
SWIDTH 244 0
DWIDTH 8 0
BBX 7 15 0 0
BITMAP
2008
2414
1820
0820
0550
0280
0240
0240
0280
0590
0820
0820
2414
2008
5008
ENDCHAR
STARTCHAR y
ENCODING 121
SWIDTH 285 0
DWIDTH 9 0
BBX 9 21 0 -6
BITMAP
500140
200140
200200
200200
140500
080500
080800
080800
051400
021400
022000
022000
019000
00D000
008000
008000
014000
014000
020000
060000
680000
ENDCHAR
STARTCHAR z
ENCODING 122
SWIDTH 233 0
DWIDTH 7 0
BBX 7 15 0 0
BITMAP
2AA8
0014
0020
0020
0050
0080
0140
0200
0200
0500
0800
1400
2000
2000
7AA8
ENDCHAR
STARTCHAR braceleft
ENCODING 123
SWIDTH 306 0
DWIDTH 10 0
BBX 10 26 0 -2
BITMAP
000AA0
001800
001400
001400
001400
001400
001400
001400
001400
001400
001400
002000
2A6000
60E000
2A6000
002000
001400
001400
001400
001400
001400
001400
001400
001400
001400
000AA0
ENDCHAR
STARTCHAR bar
ENCODING 124
SWIDTH 141 0
DWIDTH 5 0
BBX 1 26 2 -2
BITMAP
40
80
80
80
80
80
80
80
80
80
80
80
80
80
80
80
80
80
80
80
80
80
80
80
80
80
ENDCHAR
STARTCHAR braceright
ENCODING 125
SWIDTH 306 0
DWIDTH 10 0
BBX 9 26 0 -2
BITMAP
A90000
020000
014000
014000
014000
014000
014000
014000
014000
014000
014000
014000
009A80
00A080
009A80
014000
014000
014000
014000
014000
014000
014000
014000
014000
020000
A90000
ENDCHAR
STARTCHAR asciitilde
ENCODING 126
SWIDTH 433 0
DWIDTH 14 0
BBX 12 3 1 7
BITMAP
1A8005
606908
4002A4
ENDCHAR
STARTCHAR uni00A0
ENCODING 160
SWIDTH 240 0
DWIDTH 8 0
BBX 1 1 0 0
BITMAP
00
ENDCHAR
STARTCHAR exclamdown
ENCODING 161
SWIDTH 141 0
DWIDTH 5 0
BBX 1 22 2 -4
BITMAP
80
80
80
00
00
40
80
80
80
80
80
80
80
80
80
80
80
80
80
80
80
80
ENDCHAR
STARTCHAR cent
ENCODING 162
SWIDTH 275 0
DWIDTH 9 0
BBX 7 21 1 -3
BITMAP
0100
0200
0200
0240
0AA0
2614
2208
5200
9200
8200
8200
8200
8200
5200
6204
2208
1A64
0790
0200
0200
0100
ENDCHAR
STARTCHAR sterling
ENCODING 163
SWIDTH 331 0
DWIDTH 11 0
BBX 10 22 0 0
BITMAP
02A900
090140
200080
200000
200000
200000
200000
140000
080000
050000
020000
2BEA00
008000
008000
008000
008000
018000
024000
020000
080000
240000
7AAAA0
ENDCHAR
STARTCHAR currency
ENCODING 164
SWIDTH 506 0
DWIDTH 16 0
BBX 14 13 1 3
BITMAP
60000050
186A9180
06801A00
05000600
08000200
08000140
14000140
08000140
08000200
06000600
06802A00
186A9180
50000050
ENDCHAR
STARTCHAR yen
ENCODING 165
SWIDTH 370 0
DWIDTH 12 0
BBX 12 22 0 0
BITMAP
800005
600008
200008
140020
080020
050050
020080
020140
008200
008600
005800
002800
001400
001400
0ABAA0
001400
001400
0ABAA0
001400
001400
001400
001400
ENDCHAR
STARTCHAR brokenbar
ENCODING 166
SWIDTH 141 0
DWIDTH 5 0
BBX 1 26 2 -2
BITMAP
40
80
80
80
80
80
80
80
80
80
80
00
00
00
00
80
80
80
80
80
80
80
80
80
80
80
ENDCHAR
STARTCHAR section
ENCODING 167
SWIDTH 303 0
DWIDTH 10 0
BBX 9 27 0 -3
BITMAP
02A400
190600
200140
200040
200000
200000
240000
090000
024000
00A000
090900
180200
200140
200140
200140
180200
0A1900
01E000
002400
000900
000240
000180
000080
500080
200140
180600
06A400
ENDCHAR
STARTCHAR dieresis
ENCODING 168
SWIDTH 241 0
DWIDTH 8 0
BBX 4 4 2 17
BITMAP
82
82
82
82
ENDCHAR
STARTCHAR copyright
ENCODING 169
SWIDTH 772 0
DWIDTH 25 0
BBX 23 22 1 0
BITMAP
00006AA40000
001A40068000
00A000002400
024000000900
09000A900240
180020100080
200050000050
200080000020
500080000020
800080000014
800180000014
800180000014
800080000014
500080000020
200080000020
200050000050
180020100080
09000A900240
024000000900
00A000006400
001A40068000
00006AA40000
ENDCHAR
STARTCHAR ordfeminine
ENCODING 170
SWIDTH 231 0
DWIDTH 7 0
BBX 6 10 1 12
BITMAP
2A00
8140
0140
0140
0640
2540
8140
8140
8240
A990
ENDCHAR
STARTCHAR guillemotleft
ENCODING 171
SWIDTH 403 0
DWIDTH 13 0
BBX 11 12 1 3
BITMAP
002014
008060
024180
090600
240800
502000
602000
140800
090200
024180
009060
002014
ENDCHAR
STARTCHAR logicalnot
ENCODING 172
SWIDTH 557 0
DWIDTH 18 0
BBX 16 5 1 5
BITMAP
6AAAAAA9
00000002
00000002
00000002
00000002
ENDCHAR
STARTCHAR uni00AD
ENCODING 173
SWIDTH 286 0
DWIDTH 9 0
BBX 7 1 1 9
BITMAP
6AA8
ENDCHAR
STARTCHAR registered
ENCODING 174
SWIDTH 772 0
DWIDTH 25 0
BBX 23 22 1 0
BITMAP
00016AA40000
001A40068000
00A000006400
024000000900
09002A800240
180060500080
200060200050
200060200020
500060200020
800060200014
800060900014
80007A800014
800060500014
500060200020
200060200020
200060140050
180060080080
090010080240
024000000900
00A000006400
001A40068000
00016AA40000
ENDCHAR
STARTCHAR macron
ENCODING 175
SWIDTH 266 0
DWIDTH 9 0
BBX 5 1 2 18
BITMAP
AA40
ENDCHAR
STARTCHAR degree
ENCODING 176
SWIDTH 350 0
DWIDTH 11 0
BBX 9 8 1 14
BITMAP
06A400
180A00
200240
500180
500180
200240
180A00
06A400
ENDCHAR
STARTCHAR plusminus
ENCODING 177
SWIDTH 577 0
DWIDTH 18 0
BBX 16 15 1 0
BITMAP
00008000
00008000
00008000
00008000
00008000
00008000
6AAAEAAA
00008000
00008000
00008000
00008000
00008000
00004000
00000000
6AAAAAAA
ENDCHAR
STARTCHAR uni00B2
ENCODING 178
SWIDTH 207 0
DWIDTH 7 0
BBX 5 10 1 12
BITMAP
2A00
9140
0140
0140
0200
0900
1400
2000
8000
EA40
ENDCHAR
STARTCHAR uni00B3
ENCODING 179
SWIDTH 214 0
DWIDTH 7 0
BBX 5 10 1 12
BITMAP
2900
5200
0200
0200
1D00
0240
0140
0140
8240
6900
ENDCHAR
STARTCHAR acute
ENCODING 180
SWIDTH 201 0
DWIDTH 6 0
BBX 3 4 2 17
BITMAP
14
20
50
80
ENDCHAR
STARTCHAR uni00B5
ENCODING 181
SWIDTH 335 0
DWIDTH 11 0
BBX 8 21 2 -6
BITMAP
8014
8014
8014
8014
8014
8014
8014
8014
8014
8014
8014
8014
8024
D064
AA5A
8000
8000
8000
8000
8000
8000
ENDCHAR
STARTCHAR paragraph
ENCODING 182
SWIDTH 471 0
DWIDTH 15 0
BBX 11 22 2 0
BITMAP
06FF04
2FFF08
7FFF08
BFFF08
FFFF08
FFFF08
FFFF08
BFFF08
7FFF08
2FFF08
0BFF08
001608
000208
000208
000208
000208
000208
000208
000208
000208
000208
000204
ENDCHAR
STARTCHAR periodcentered
ENCODING 183
SWIDTH 181 0
DWIDTH 6 0
BBX 2 3 2 8
BITMAP
50
50
50
ENDCHAR
STARTCHAR cedilla
ENCODING 184
SWIDTH 232 0
DWIDTH 7 0
BBX 4 5 2 -5
BITMAP
20
78
45
45
68
ENDCHAR
STARTCHAR uni00B9
ENCODING 185
SWIDTH 176 0
DWIDTH 6 0
BBX 4 10 1 12
BITMAP
64
54
14
14
14
14
14
14
14
BE
ENDCHAR
STARTCHAR ordmasculine
ENCODING 186
SWIDTH 201 0
DWIDTH 6 0
BBX 5 10 1 12
BITMAP
2900
9200
8140
8140
4080
4080
8140
8140
9200
2900
ENDCHAR
STARTCHAR guillemotright
ENCODING 187
SWIDTH 403 0
DWIDTH 13 0
BBX 11 12 1 4
BITMAP
502000
241800
080500
020240
008090
006024
002024
008050
020180
090600
241800
502000
ENDCHAR
STARTCHAR onequarter
ENCODING 188
SWIDTH 527 0
DWIDTH 17 0
BBX 14 22 1 0
BITMAP
2C000050
18000080
08000140
08000200
08000500
08000800
08001400
08002000
08005000
6E808000
00014000
00020000
00050100
00080200
00140500
00200880
00600880
00802080
01802080
02006AE0
06000080
08000080
ENDCHAR
STARTCHAR onehalf
ENCODING 189
SWIDTH 540 0
DWIDTH 17 0
BBX 15 22 1 0
BITMAP
2C000050
18000080
08000140
08000200
08000500
08000800
08001400
08002000
08005000
6E808000
00014000
00020000
000502A0
00080914
00140014
00200014
00600020
00800090
01800140
02000200
06000800
08000EA4
ENDCHAR
STARTCHAR threequarters
ENCODING 190
SWIDTH 517 0
DWIDTH 17 0
BBX 15 22 1 0
BITMAP
29000050
52000080
02000140
02000200
1D000500
02400800
01401400
01402000
82405000
69008000
00014000
00020000
00050140
00080200
00140200
00200580
00600880
00801480
01802080
02002AE4
06000080
08000080
ENDCHAR
STARTCHAR questiondown
ENCODING 191
SWIDTH 300 0
DWIDTH 10 0
BBX 8 22 1 -4
BITMAP
0080
0080
0080
0000
0000
0000
0080
0050
0050
0050
0080
0140
0200
0800
1800
2000
2000
6000
6000
2006
2408
0AA0
ENDCHAR
STARTCHAR Agrave
ENCODING 192
SWIDTH 414 0
DWIDTH 13 0
BBX 13 26 0 0
BITMAP
00500000
00200000
00080000
00000000
00080000
000D0000
001A0000
00220000
00220000
00214000
00508000
00808000
00809000
01805000
01402000
02002000
02002400
07AAA800
09000800
08000800
08000500
14000200
20000200
20000240
60000140
50000080
ENDCHAR
STARTCHAR Aacute
ENCODING 193
SWIDTH 414 0
DWIDTH 13 0
BBX 13 26 0 0
BITMAP
00008000
00020000
00060000
00000000
00080000
000D0000
001A0000
00220000
00220000
00214000
00508000
00808000
00809000
01805000
01402000
02002000
02002400
07AAA800
09000800
08000800
08000500
14000200
20000200
20000240
60000140
50000080
ENDCHAR
STARTCHAR Acircumflex
ENCODING 194
SWIDTH 414 0
DWIDTH 13 0
BBX 13 27 0 0
BITMAP
00040000
001A0000
00214000
00404000
00000000
00080000
000D0000
001A0000
00220000
00220000
00214000
00508000
00808000
00809000
01805000
01402000
02002000
02002400
07AAA800
09000800
08000800
08000500
14000200
20000200
20000240
60000140
50000080
ENDCHAR
STARTCHAR Atilde
ENCODING 195
SWIDTH 414 0
DWIDTH 13 0
BBX 13 25 0 0
BITMAP
00A45000
00868000
00000000
00080000
000D0000
001A0000
00220000
00220000
00214000
00508000
00808000
00809000
01805000
01402000
02002000
02002400
07AAA800
09000800
08000800
08000500
14000200
20000200
20000240
60000140
50000080
ENDCHAR
STARTCHAR Adieresis
ENCODING 196
SWIDTH 414 0
DWIDTH 13 0
BBX 13 26 0 0
BITMAP
00114000
00614000
00114000
00000000
00080000
000D0000
001A0000
00220000
00220000
00214000
00508000
00808000
00809000
01805000
01402000
02002000
02002400
07AAA800
09000800
08000800
08000500
14000200
20000200
20000240
60000140
50000080
ENDCHAR
STARTCHAR Aring
ENCODING 197
SWIDTH 414 0
DWIDTH 13 0
BBX 13 27 0 0
BITMAP
001A0000
00214000
00214000
001A0000
00000000
00080000
000D0000
001A0000
00220000
00220000
00214000
00508000
00808000
00809000
01805000
01402000
02002000
02002400
07AAA800
09000800
08000800
08000500
14000200
20000200
20000240
60000140
50000080
ENDCHAR
STARTCHAR AE
ENCODING 198
SWIDTH 545 0
DWIDTH 17 0
BBX 16 22 0 0
BITMAP
00002AAA
00003000
00006000
0000A000
00016000
00022000
00022000
00092000
00082000
00142000
00202AAA
00602000
00902000
00EAB000
02402000
02002000
05002000
08002000
18002000
20002000
20002000
50002AAA
ENDCHAR
STARTCHAR Ccedilla
ENCODING 199
SWIDTH 366 0
DWIDTH 12 0
BBX 10 27 1 -5
BITMAP
00AA40
064050
080000
140000
200000
200000
500000
500000
800000
800000
800000
800000
800000
800000
500000
500000
200000
200000
140000
080000
064050
00AE40
001400
003900
000200
004200
002900
ENDCHAR
STARTCHAR Egrave
ENCODING 200
SWIDTH 309 0
DWIDTH 10 0
BBX 7 26 2 0
BITMAP
2000
0800
0500
0000
EAA4
8000
8000
8000
8000
8000
8000
8000
8000
8000
EAA0
8000
8000
8000
8000
8000
8000
8000
8000
8000
8000
EAA4
ENDCHAR
STARTCHAR Eacute
ENCODING 201
SWIDTH 309 0
DWIDTH 10 0
BBX 7 26 2 0
BITMAP
0050
0080
0240
0000
EAA4
8000
8000
8000
8000
8000
8000
8000
8000
8000
EAA0
8000
8000
8000
8000
8000
8000
8000
8000
8000
8000
EAA4
ENDCHAR
STARTCHAR Ecircumflex
ENCODING 202
SWIDTH 309 0
DWIDTH 10 0
BBX 7 27 2 0
BITMAP
0100
0A40
1480
1010
0000
EAA4
8000
8000
8000
8000
8000
8000
8000
8000
8000
EAA0
8000
8000
8000
8000
8000
8000
8000
8000
8000
8000
EAA4
ENDCHAR
STARTCHAR Edieresis
ENCODING 203
SWIDTH 309 0
DWIDTH 10 0
BBX 7 26 2 0
BITMAP
1080
2080
1080
0000
EAA4
8000
8000
8000
8000
8000
8000
8000
8000
8000
EAA0
8000
8000
8000
8000
8000
8000
8000
8000
8000
8000
EAA4
ENDCHAR
STARTCHAR Igrave
ENCODING 204
SWIDTH 141 0
DWIDTH 5 0
BBX 3 26 0 0
BITMAP
80
20
14
00
08
08
08
08
08
08
08
08
08
08
08
08
08
08
08
08
08
08
08
08
08
08
ENDCHAR
STARTCHAR Iacute
ENCODING 205
SWIDTH 141 0
DWIDTH 5 0
BBX 3 26 2 0
BITMAP
14
20
90
00
80
80
80
80
80
80
80
80
80
80
80
80
80
80
80
80
80
80
80
80
80
80
ENDCHAR
STARTCHAR Icircumflex
ENCODING 206
SWIDTH 141 0
DWIDTH 5 0
BBX 5 27 0 0
BITMAP
0400
2900
5200
4040
0000
0800
0800
0800
0800
0800
0800
0800
0800
0800
0800
0800
0800
0800
0800
0800
0800
0800
0800
0800
0800
0800
0800
ENDCHAR
STARTCHAR Idieresis
ENCODING 207
SWIDTH 141 0
DWIDTH 5 0
BBX 4 26 0 0
BITMAP
42
82
42
00
08
08
08
08
08
08
08
08
08
08
08
08
08
08
08
08
08
08
08
08
08
08
ENDCHAR
STARTCHAR Eth
ENCODING 208
SWIDTH 396 0
DWIDTH 13 0
BBX 12 22 0 0
BITMAP
0EAA00
080190
080020
080014
080008
080008
080008
080009
080005
080005
080005
6EA005
080005
080005
080009
080008
080008
080008
080024
080020
080190
0EAA00
ENDCHAR
STARTCHAR Ntilde
ENCODING 209
SWIDTH 422 0
DWIDTH 14 0
BBX 10 25 2 0
BITMAP
068500
086800
000000
800020
C00020
E00020
A00020
940020
880020
890020
820020
820020
814020
808020
805020
802020
802020
801820
800820
800520
800220
800160
8000A0
8000A0
800060
ENDCHAR
STARTCHAR Ograve
ENCODING 210
SWIDTH 446 0
DWIDTH 14 0
BBX 12 26 1 0
BITMAP
008000
006000
002400
000000
01AA40
064090
080024
140008
200008
200005
500002
500002
800002
800002
800002
800002
800002
800002
500002
500002
200005
200008
140008
080024
060090
01AA40
ENDCHAR
STARTCHAR Oacute
ENCODING 211
SWIDTH 446 0
DWIDTH 14 0
BBX 12 26 1 0
BITMAP
000200
000600
000800
000000
01AA40
064090
080024
140008
200008
200005
500002
500002
800002
800002
800002
800002
800002
800002
500002
500002
200005
200008
140008
080024
060090
01AA40
ENDCHAR
STARTCHAR Ocircumflex
ENCODING 212
SWIDTH 446 0
DWIDTH 14 0
BBX 12 27 1 0
BITMAP
000400
002800
009200
004140
000000
01AA40
064090
080024
140008
200008
200005
500002
500002
800002
800002
800002
800002
800002
800002
500002
500002
200005
200008
140008
080024
060090
01AA40
ENDCHAR
STARTCHAR Otilde
ENCODING 213
SWIDTH 446 0
DWIDTH 14 0
BBX 12 25 1 0
BITMAP
00A480
010A40
000000
01AA40
064090
080024
140008
200008
200005
500002
500002
800002
800002
800002
800002
800002
800002
500002
500002
200005
200008
140008
080024
060090
01AA40
ENDCHAR
STARTCHAR Odieresis
ENCODING 214
SWIDTH 446 0
DWIDTH 14 0
BBX 12 26 1 0
BITMAP
008200
008200
008200
000000
01AA40
064090
080024
140008
200008
200005
500002
500002
800002
800002
800002
800002
800002
800002
500002
500002
200005
200008
140008
080024
060090
01AA40
ENDCHAR
STARTCHAR multiply
ENCODING 215
SWIDTH 445 0
DWIDTH 14 0
BBX 12 11 1 2
BITMAP
600009
180024
060090
018240
006900
002800
009600
024180
090060
240018
500005
ENDCHAR
STARTCHAR Oslash
ENCODING 216
SWIDTH 446 0
DWIDTH 14 0
BBX 12 22 1 0
BITMAP
01AA45
064098
080024
140028
200068
200085
500082
500202
800202
800502
800802
801402
802002
805002
508002
514002
220005
260008
180008
1C0024
260090
20AA40
ENDCHAR
STARTCHAR Ugrave
ENCODING 217
SWIDTH 412 0
DWIDTH 13 0
BBX 11 26 1 0
BITMAP
014000
008000
002000
000000
500008
500008
500008
500008
500008
500008
500008
500008
500008
500008
500008
500008
500008
500008
500008
500008
500008
500008
500014
200020
190090
06AA40
ENDCHAR
STARTCHAR Uacute
ENCODING 218
SWIDTH 412 0
DWIDTH 13 0
BBX 11 26 1 0
BITMAP
000200
000800
001400
000000
500008
500008
500008
500008
500008
500008
500008
500008
500008
500008
500008
500008
500008
500008
500008
500008
500008
500008
500014
200020
190090
06AA40
ENDCHAR
STARTCHAR Ucircumflex
ENCODING 219
SWIDTH 412 0
DWIDTH 13 0
BBX 11 27 1 0
BITMAP
001000
006800
008900
010100
000000
500008
500008
500008
500008
500008
500008
500008
500008
500008
500008
500008
500008
500008
500008
500008
500008
500008
500008
500014
200020
190090
06AA40
ENDCHAR
STARTCHAR Udieresis
ENCODING 220
SWIDTH 412 0
DWIDTH 13 0
BBX 11 26 1 0
BITMAP
014500
014500
014500
000000
500008
500008
500008
500008
500008
500008
500008
500008
500008
500008
500008
500008
500008
500008
500008
500008
500008
500008
500014
200020
190090
06AA40
ENDCHAR
STARTCHAR Yacute
ENCODING 221
SWIDTH 370 0
DWIDTH 12 0
BBX 12 26 0 0
BITMAP
000200
000500
000800
000000
800005
600008
200008
140020
080020
050050
020080
024140
008200
008500
006800
002800
001400
001400
001400
001400
001400
001400
001400
001400
001400
001400
ENDCHAR
STARTCHAR Thorn
ENCODING 222
SWIDTH 341 0
DWIDTH 11 0
BBX 8 22 2 0
BITMAP
8000
8000
8000
8000
EA90
8018
8009
8002
8002
8002
8002
8002
8006
8008
8064
AA80
8000
8000
8000
8000
8000
8000
ENDCHAR
STARTCHAR germandbls
ENCODING 223
SWIDTH 327 0
DWIDTH 10 0
BBX 7 22 2 0
BITMAP
2A80
5050
8020
8020
8020
8020
8020
8020
8A60
94A0
8A60
8014
8008
8008
8008
8008
8008
8008
8014
8020
8050
AA40
ENDCHAR
STARTCHAR agrave
ENCODING 224
SWIDTH 315 0
DWIDTH 10 0
BBX 8 21 1 0
BITMAP
0400
0900
0200
0140
0000
0000
0A90
2424
5014
0008
0008
0008
0018
0298
1908
6008
8008
8008
8018
9068
2A4A
ENDCHAR
STARTCHAR aacute
ENCODING 225
SWIDTH 315 0
DWIDTH 10 0
BBX 8 21 1 0
BITMAP
0010
0050
0080
0140
0000
0000
0A90
2424
5014
0008
0008
0008
0018
0298
1908
6008
8008
8008
8018
9068
2A4A
ENDCHAR
STARTCHAR acircumflex
ENCODING 226
SWIDTH 315 0
DWIDTH 10 0
BBX 8 20 1 0
BITMAP
0240
0590
0820
1014
0000
0A90
2424
5014
0008
0008
0008
0018
0298
1908
6008
8008
8008
8018
9068
2A4A
ENDCHAR
STARTCHAR atilde
ENCODING 227
SWIDTH 315 0
DWIDTH 10 0
BBX 8 19 1 0
BITMAP
1A08
21A4
0000
0000
0A90
2424
5014
0008
0008
0008
0018
0298
1908
6008
8008
8008
8018
9068
2A4A
ENDCHAR
STARTCHAR adieresis
ENCODING 228
SWIDTH 315 0
DWIDTH 10 0
BBX 8 21 1 0
BITMAP
0820
0820
0820
0820
0000
0000
0A90
2424
5014
0008
0008
0008
0018
0298
1908
6008
8008
8008
8018
9068
2A4A
ENDCHAR
STARTCHAR aring
ENCODING 229
SWIDTH 315 0
DWIDTH 10 0
BBX 8 21 1 0
BITMAP
0690
0820
0820
0690
0000
0000
0A90
2424
5014
0008
0008
0008
0018
0298
1908
6008
8008
8008
8018
9068
2A4A
ENDCHAR
STARTCHAR ae
ENCODING 230
SWIDTH 450 0
DWIDTH 14 0
BBX 13 15 1 0
BITMAP
0A90A800
20264500
40190200
000C0200
000C0140
00080140
016EAA40
1A580000
60080000
80080000
80080000
80080000
801D0200
90620600
2A41A800
ENDCHAR
STARTCHAR ccedilla
ENCODING 231
SWIDTH 275 0
DWIDTH 9 0
BBX 7 20 1 -5
BITMAP
0690
1824
2008
6004
5000
8000
8000
8000
8000
8000
5000
6004
2008
1824
0690
0200
0780
0020
0420
0680
ENDCHAR
STARTCHAR egrave
ENCODING 232
SWIDTH 285 0
DWIDTH 9 0
BBX 7 21 1 0
BITMAP
0400
0900
0200
0140
0000
0000
0690
1820
2018
6008
5008
8008
AAA8
8000
8000
8000
5000
6004
2008
1824
0690
ENDCHAR
STARTCHAR eacute
ENCODING 233
SWIDTH 285 0
DWIDTH 9 0
BBX 7 21 1 0
BITMAP
0010
0050
0080
0140
0000
0000
0690
1820
2018
6008
5008
8008
AAA8
8000
8000
8000
5000
6004
2008
1824
0690
ENDCHAR
STARTCHAR ecircumflex
ENCODING 234
SWIDTH 285 0
DWIDTH 9 0
BBX 7 20 1 0
BITMAP
0240
0580
0820
1014
0000
0690
1820
2018
6008
5008
8008
AAA8
8000
8000
8000
5000
6004
2008
1824
0690
ENDCHAR
STARTCHAR edieresis
ENCODING 235
SWIDTH 285 0
DWIDTH 9 0
BBX 7 21 1 0
BITMAP
0820
0820
0820
0820
0000
0000
0690
1820
2018
6008
5008
8008
AAA8
8000
8000
8000
5000
6004
2008
1824
0690
ENDCHAR
STARTCHAR igrave
ENCODING 236
SWIDTH 141 0
DWIDTH 5 0
BBX 3 21 0 0
BITMAP
40
60
24
08
00
00
08
08
08
08
08
08
08
08
08
08
08
08
08
08
08
ENDCHAR
STARTCHAR iacute
ENCODING 237
SWIDTH 141 0
DWIDTH 5 0
BBX 2 21 2 0
BITMAP
10
20
90
80
00
00
80
80
80
80
80
80
80
80
80
80
80
80
80
80
80
ENDCHAR
STARTCHAR icircumflex
ENCODING 238
SWIDTH 141 0
DWIDTH 5 0
BBX 5 20 0 0
BITMAP
1800
2600
9240
4040
0000
0800
0800
0800
0800
0800
0800
0800
0800
0800
0800
0800
0800
0800
0800
0800
ENDCHAR
STARTCHAR idieresis
ENCODING 239
SWIDTH 141 0
DWIDTH 5 0
BBX 5 21 0 0
BITMAP
8100
8140
8140
8100
0000
0000
0800
0800
0800
0800
0800
0800
0800
0800
0800
0800
0800
0800
0800
0800
0800
ENDCHAR
STARTCHAR eth
ENCODING 240
SWIDTH 319 0
DWIDTH 10 0
BBX 8 22 1 0
BITMAP
1400
0900
0245
01E4
1960
0020
0018
0698
181D
2005
6002
5002
8002
8002
8002
8002
8002
5006
6005
2008
1824
0690
ENDCHAR
STARTCHAR ntilde
ENCODING 241
SWIDTH 307 0
DWIDTH 10 0
BBX 7 19 2 0
BITMAP
6820
8690
0000
0000
9A90
A020
C020
8014
8014
8014
8014
8014
8014
8014
8014
8014
8014
8014
8014
ENDCHAR
STARTCHAR ograve
ENCODING 242
SWIDTH 309 0
DWIDTH 10 0
BBX 8 21 1 0
BITMAP
0400
0500
0200
0140
0000
0000
0690
1824
2008
6008
5005
8005
8002
8002
8002
8005
5005
6008
2008
1824
0690
ENDCHAR
STARTCHAR oacute
ENCODING 243
SWIDTH 309 0
DWIDTH 10 0
BBX 8 21 1 0
BITMAP
0010
0060
0080
0140
0000
0000
0690
1824
2008
6008
5005
8005
8002
8002
8002
8005
5005
6008
2008
1824
0690
ENDCHAR
STARTCHAR ocircumflex
ENCODING 244
SWIDTH 309 0
DWIDTH 10 0
BBX 8 20 1 0
BITMAP
0240
0690
0820
1014
0000
0690
1824
2008
6008
5005
8005
8002
8002
8002
8005
5005
6008
2008
1824
0690
ENDCHAR
STARTCHAR otilde
ENCODING 245
SWIDTH 309 0
DWIDTH 10 0
BBX 8 19 1 0
BITMAP
1A08
21A4
0000
0000
0690
1824
2008
6008
5005
8005
8002
8002
8002
8005
5005
6008
2008
1824
0690
ENDCHAR
STARTCHAR odieresis
ENCODING 246
SWIDTH 309 0
DWIDTH 10 0
BBX 8 21 1 0
BITMAP
0820
0820
0820
0820
0000
0000
0690
1824
2008
6008
5005
8005
8002
8002
8002
8005
5005
6008
2008
1824
0690
ENDCHAR
STARTCHAR divide
ENCODING 247
SWIDTH 577 0
DWIDTH 18 0
BBX 16 15 1 0
BITMAP
00008000
00008000
00008000
00000000
00000000
00000000
00000000
6AAAAAAA
00000000
00000000
00000000
00000000
00008000
00008000
00008000
ENDCHAR
STARTCHAR oslash
ENCODING 248
SWIDTH 309 0
DWIDTH 10 0
BBX 8 15 1 0
BITMAP
0695
1828
2018
6028
5025
8055
8086
8142
8202
8505
5805
6808
3008
2824
5690
ENDCHAR
STARTCHAR ugrave
ENCODING 249
SWIDTH 307 0
DWIDTH 10 0
BBX 7 21 1 0
BITMAP
0400
0900
0200
0140
0000
0000
5008
5008
5008
5008
5008
5008
5008
5008
5008
5008
5008
5008
5008
2028
1A88
ENDCHAR
STARTCHAR uacute
ENCODING 250
SWIDTH 307 0
DWIDTH 10 0
BBX 7 21 1 0
BITMAP
0010
0050
0080
0140
0000
0000
5008
5008
5008
5008
5008
5008
5008
5008
5008
5008
5008
5008
5008
2028
1A88
ENDCHAR
STARTCHAR ucircumflex
ENCODING 251
SWIDTH 307 0
DWIDTH 10 0
BBX 7 20 1 0
BITMAP
0240
0590
0820
1014
0000
5008
5008
5008
5008
5008
5008
5008
5008
5008
5008
5008
5008
5008
2028
1A88
ENDCHAR
STARTCHAR udieresis
ENCODING 252
SWIDTH 307 0
DWIDTH 10 0
BBX 7 21 1 0
BITMAP
0820
0820
0820
0820
0000
0000
5008
5008
5008
5008
5008
5008
5008
5008
5008
5008
5008
5008
5008
2028
1A88
ENDCHAR
STARTCHAR yacute
ENCODING 253
SWIDTH 285 0
DWIDTH 9 0
BBX 9 27 0 -6
BITMAP
000400
002000
006000
008000
000000
000000
500140
200140
200200
200200
140500
080500
080800
080800
051400
021400
022000
022000
019000
00D000
008000
008000
014000
014000
020000
060000
680000
ENDCHAR
STARTCHAR thorn
ENCODING 254
SWIDTH 299 0
DWIDTH 10 0
BBX 9 28 0 -6
BITMAP
080000
080000
080000
080000
080000
080000
080000
0EA400
680800
080200
080200
080200
080240
080140
080140
080140
080240
080200
080200
080200
0D0800
09A400
080000
080000
080000
080000
080000
080000
ENDCHAR
STARTCHAR ydieresis
ENCODING 255
SWIDTH 285 0
DWIDTH 9 0
BBX 9 27 0 -6
BITMAP
050400
051800
051800
050400
000000
000000
500140
200140
200200
200200
140500
080500
080800
080800
051400
021400
022000
022000
019000
00D000
008000
008000
014000
014000
020000
060000
680000
ENDCHAR
STARTCHAR dotlessi
ENCODING 305
SWIDTH 141 0
DWIDTH 5 0
BBX 1 15 2 0
BITMAP
80
80
80
80
80
80
80
80
80
80
80
80
80
80
80
ENDCHAR
STARTCHAR OE
ENCODING 338
SWIDTH 505 0
DWIDTH 16 0
BBX 14 22 1 0
BITMAP
01ABAAA0
06020000
08020000
24020000
20020000
20020000
50020000
90020000
80020000
80020000
8002AA90
80020000
80020000
80020000
50020000
50020000
20020000
20020000
14020000
08020000
06420000
01ABAAA0
ENDCHAR
STARTCHAR oe
ENCODING 339
SWIDTH 492 0
DWIDTH 16 0
BBX 14 15 1 0
BITMAP
06902A00
18209180
20088080
60094050
50070020
80060020
8003AAA0
80020000
80020000
80060000
50070000
600A0010
20088050
18209080
06902A40
ENDCHAR
STARTCHAR Wcircumflex
ENCODING 372
SWIDTH 534 0
DWIDTH 17 0
BBX 15 27 1 0
BITMAP
00010000
00068000
00189000
00101000
00000000
80000008
50000008
50000014
50000014
50000014
50000014
20000014
20064020
20088020
20088020
20088020
20088020
20054020
20030020
20030020
20068020
14088020
14202050
14501850
15800950
1A000290
08000080
ENDCHAR
STARTCHAR wcircumflex
ENCODING 373
SWIDTH 396 0
DWIDTH 13 0
BBX 11 20 1 0
BITMAP
006000
009800
024900
010100
000000
800008
800008
800008
806014
809414
808814
909424
509420
507020
507020
20A420
214820
220220
2801A0
240090
ENDCHAR
STARTCHAR Ycircumflex
ENCODING 374
SWIDTH 370 0
DWIDTH 12 0
BBX 12 27 0 0
BITMAP
001000
002800
008600
004100
000000
800005
600008
200008
140020
080020
050050
020080
024140
008200
008500
006800
002800
001400
001400
001400
001400
001400
001400
001400
001400
001400
001400
ENDCHAR
STARTCHAR ycircumflex
ENCODING 375
SWIDTH 285 0
DWIDTH 9 0
BBX 9 26 0 -6
BITMAP
008000
026000
051800
080400
000000
500140
200140
200200
200200
140500
080500
080800
080800
051400
021400
022000
022000
019000
00D000
008000
008000
014000
014000
020000
060000
680000
ENDCHAR
STARTCHAR Ydieresis
ENCODING 376
SWIDTH 370 0
DWIDTH 12 0
BBX 12 26 0 0
BITMAP
008200
008200
008200
000000
800005
600008
200008
140020
080020
050050
020080
024140
008200
008500
006800
002800
001400
001400
001400
001400
001400
001400
001400
001400
001400
001400
ENDCHAR
STARTCHAR uni0237
ENCODING 567
SWIDTH 141 0
DWIDTH 5 0
BBX 6 21 -3 -6
BITMAP
0020
0020
0020
0020
0020
0020
0020
0020
0020
0020
0020
0020
0020
0020
0020
0020
0020
0050
0090
0180
6900
ENDCHAR
STARTCHAR circumflex
ENCODING 710
SWIDTH 280 0
DWIDTH 9 0
BBX 5 4 2 16
BITMAP
0800
2600
5140
8080
ENDCHAR
STARTCHAR ring
ENCODING 730
SWIDTH 238 0
DWIDTH 8 0
BBX 4 4 2 17
BITMAP
68
82
82
68
ENDCHAR
STARTCHAR tilde
ENCODING 732
SWIDTH 301 0
DWIDTH 10 0
BBX 6 2 2 17
BITMAP
6820
8690
ENDCHAR
STARTCHAR gravecomb
ENCODING 768
SWIDTH 0 0
DWIDTH 0 0
BBX 3 4 2 17
BITMAP
40
90
20
14
ENDCHAR
STARTCHAR acutecomb
ENCODING 769
SWIDTH 0 0
DWIDTH 0 0
BBX 3 4 2 17
BITMAP
14
20
50
80
ENDCHAR
STARTCHAR uni0302
ENCODING 770
SWIDTH 0 0
DWIDTH 0 0
BBX 5 4 2 16
BITMAP
0800
2600
5140
8080
ENDCHAR
STARTCHAR tildecomb
ENCODING 771
SWIDTH 0 0
DWIDTH 0 0
BBX 6 2 2 17
BITMAP
6820
8690
ENDCHAR
STARTCHAR uni0307
ENCODING 775
SWIDTH 0 0
DWIDTH 0 0
BBX 1 4 2 17
BITMAP
80
80
80
80
ENDCHAR
STARTCHAR uni0308
ENCODING 776
SWIDTH 0 0
DWIDTH 0 0
BBX 4 4 2 17
BITMAP
82
82
82
82
ENDCHAR
STARTCHAR uni030A
ENCODING 778
SWIDTH 0 0
DWIDTH 0 0
BBX 4 4 2 17
BITMAP
68
82
82
68
ENDCHAR
STARTCHAR uni0327
ENCODING 807
SWIDTH 0 0
DWIDTH 0 0
BBX 4 5 2 -5
BITMAP
20
78
45
45
68
ENDCHAR
STARTCHAR Wgrave
ENCODING 7808
SWIDTH 534 0
DWIDTH 17 0
BBX 15 26 1 0
BITMAP
00140000
00080000
00060000
00000000
80000008
50000008
50000014
50000014
50000014
50000014
20000014
20064020
20088020
20088020
20088020
20088020
20054020
20030020
20030020
20068020
14088020
14202050
14501850
15800950
1A000290
08000080
ENDCHAR
STARTCHAR wgrave
ENCODING 7809
SWIDTH 396 0
DWIDTH 13 0
BBX 11 21 1 0
BITMAP
010000
008000
009000
002000
000000
000000
800008
800008
800008
806014
809414
808814
909424
509420
507020
507020
20A420
214820
220220
2801A0
240090
ENDCHAR
STARTCHAR Wacute
ENCODING 7810
SWIDTH 534 0
DWIDTH 17 0
BBX 15 26 1 0
BITMAP
00002000
00008000
00014000
00000000
80000008
50000008
50000014
50000014
50000014
50000014
20000014
20064020
20088020
20088020
20088020
20088020
20054020
20030020
20030020
20068020
14088020
14202050
14501850
15800950
1A000290
08000080
ENDCHAR
STARTCHAR wacute
ENCODING 7811
SWIDTH 396 0
DWIDTH 13 0
BBX 11 21 1 0
BITMAP
000500
000800
002400
002000
000000
000000
800008
800008
800008
806014
809414
808814
909424
509420
507020
507020
20A420
214820
220220
2801A0
240090
ENDCHAR
STARTCHAR Wdieresis
ENCODING 7812
SWIDTH 534 0
DWIDTH 17 0
BBX 15 26 1 0
BITMAP
00145000
00145000
00145000
00000000
80000008
50000008
50000014
50000014
50000014
50000014
20000014
20064020
20088020
20088020
20088020
20088020
20054020
20030020
20030020
20068020
14088020
14202050
14501850
15800950
1A000290
08000080
ENDCHAR
STARTCHAR wdieresis
ENCODING 7813
SWIDTH 396 0
DWIDTH 13 0
BBX 11 21 1 0
BITMAP
020500
020500
020500
020500
000000
000000
800008
800008
800008
806014
809414
808814
909424
509420
507020
507020
20A420
214820
220220
2801A0
240090
ENDCHAR
STARTCHAR uni1E9E
ENCODING 7838
SWIDTH 375 0
DWIDTH 12 0
BBX 9 22 2 0
BITMAP
1A9000
601800
800800
800500
800600
800200
800500
800500
869800
882800
886900
868200
800200
800140
800140
800140
800140
800200
800200
800500
801800
AA9000
ENDCHAR
STARTCHAR Ygrave
ENCODING 7922
SWIDTH 370 0
DWIDTH 12 0
BBX 12 26 0 0
BITMAP
008000
005000
002000
000000
800005
600008
200008
140020
080020
050050
020080
024140
008200
008500
006800
002800
001400
001400
001400
001400
001400
001400
001400
001400
001400
001400
ENDCHAR
STARTCHAR ygrave
ENCODING 7923
SWIDTH 285 0
DWIDTH 9 0
BBX 9 27 0 -6
BITMAP
050000
020000
018000
008000
000000
000000
500140
200140
200200
200200
140500
080500
080800
080800
051400
021400
022000
022000
019000
00D000
008000
008000
014000
014000
020000
060000
680000
ENDCHAR
STARTCHAR endash
ENCODING 8211
SWIDTH 425 0
DWIDTH 14 0
BBX 12 1 1 7
BITMAP
6AAAA9
ENDCHAR
STARTCHAR emdash
ENCODING 8212
SWIDTH 770 0
DWIDTH 25 0
BBX 23 1 1 7
BITMAP
6AAAAAAAAAA4
ENDCHAR
STARTCHAR quoteleft
ENCODING 8216
SWIDTH 145 0
DWIDTH 5 0
BBX 3 6 1 16
BITMAP
24
60
50
50
50
50
ENDCHAR
STARTCHAR quoteright
ENCODING 8217
SWIDTH 145 0
DWIDTH 5 0
BBX 2 6 1 16
BITMAP
20
20
20
20
20
90
ENDCHAR
STARTCHAR quotesinglbase
ENCODING 8218
SWIDTH 145 0
DWIDTH 5 0
BBX 3 6 0 -3
BITMAP
08
08
08
08
18
60
ENDCHAR
STARTCHAR quotedblleft
ENCODING 8220
SWIDTH 219 0
DWIDTH 7 0
BBX 5 6 1 16
BITMAP
2580
6200
5200
5200
5200
5200
ENDCHAR
STARTCHAR quotedblright
ENCODING 8221
SWIDTH 219 0
DWIDTH 7 0
BBX 5 6 1 16
BITMAP
2140
2140
2140
2140
2240
9600
ENDCHAR
STARTCHAR quotedblbase
ENCODING 8222
SWIDTH 219 0
DWIDTH 7 0
BBX 5 6 0 -3
BITMAP
0880
0880
0880
0880
1880
6240
ENDCHAR
STARTCHAR bullet
ENCODING 8226
SWIDTH 355 0
DWIDTH 11 0
BBX 8 8 2 7
BITMAP
1BE0
7FF8
FFFD
FFFD
FFFD
BFFC
2FF4
0540
ENDCHAR
STARTCHAR ellipsis
ENCODING 8230
SWIDTH 651 0
DWIDTH 21 0
BBX 17 3 2 0
BITMAP
5000800140
5000800140
5000800140
ENDCHAR
STARTCHAR guilsinglleft
ENCODING 8249
SWIDTH 263 0
DWIDTH 8 0
BBX 6 12 1 3
BITMAP
0020
0080
0240
0900
2400
5000
6000
1400
0900
0240
0090
0020
ENDCHAR
STARTCHAR guilsinglright
ENCODING 8250
SWIDTH 263 0
DWIDTH 8 0
BBX 6 12 1 4
BITMAP
5000
2400
0800
0200
0080
0060
0020
0080
0200
0900
2400
5000
ENDCHAR
STARTCHAR fraction
ENCODING 8260
SWIDTH 152 0
DWIDTH 5 0
BBX 11 22 -3 0
BITMAP
000008
000018
000020
000060
000080
000180
000200
000600
000800
001800
002000
006000
008000
018000
020000
060000
080000
180000
200000
200000
800000
800000
ENDCHAR
STARTCHAR uni2074
ENCODING 8308
SWIDTH 247 0
DWIDTH 8 0
BBX 6 10 1 12
BITMAP
0100
0900
0800
1600
2200
6200
8200
AB90
0200
0200
ENDCHAR
STARTCHAR Euro
ENCODING 8364
SWIDTH 391 0
DWIDTH 13 0
BBX 12 22 0 0
BITMAP
001AA4
006005
018000
020000
020000
050000
090000
080000
080000
AEA900
080000
080000
AEA900
080000
080000
080000
050000
020000
020000
018000
006009
001AA4
ENDCHAR
STARTCHAR trademark
ENCODING 8482
SWIDTH 506 0
DWIDTH 16 0
BBX 15 11 0 11
BITMAP
7FF18028
0201A4A8
02014B08
02014A08
02014A08
02014608
02014A08
02014A08
02014B08
02014008
02014008
ENDCHAR
STARTCHAR minus
ENCODING 8722
SWIDTH 557 0
DWIDTH 18 0
BBX 16 1 1 9
BITMAP
BFFFFFFD
ENDCHAR
STARTCHAR uni2215
ENCODING 8725
SWIDTH 259 0
DWIDTH 8 0
BBX 8 23 0 0
BITMAP
0002
0002
0005
0008
0008
0014
0020
0020
0050
0080
0080
0140
0200
0200
0600
0900
0800
1800
1400
2000
2000
5000
8000
ENDCHAR
STARTCHAR .notdef
ENCODING -1
SWIDTH 500 0
DWIDTH 16 0
BBX 14 29 1 -6
BITMAP
6AAAAA90
7FFFFFD0
740001D0
740001D0
740001D0
740001D0
740001D0
740001D0
740001D0
740001D0
740001D0
740001D0
740001D0
740001D0
740001D0
740001D0
740001D0
740001D0
740001D0
740001D0
740001D0
740001D0
740001D0
740001D0
740001D0
740001D0
740001D0
7AAAAAD0
7FFFFFD0
ENDCHAR
STARTCHAR NULL
ENCODING -1
SWIDTH 600 0
DWIDTH 19 0
BBX 1 1 0 0
BITMAP
00
ENDCHAR
STARTCHAR acutecomb.case
ENCODING -1
SWIDTH 0 0
DWIDTH 0 0
BBX 2 3 2 23
BITMAP
20
60
80
ENDCHAR
STARTCHAR uni0302.case
ENCODING -1
SWIDTH 0 0
DWIDTH 0 0
BBX 5 4 2 23
BITMAP
0400
2800
9200
4140
ENDCHAR
STARTCHAR uni0308.case
ENCODING -1
SWIDTH 0 0
DWIDTH 0 0
BBX 4 3 2 23
BITMAP
85
85
85
ENDCHAR
STARTCHAR uni0307.case
ENCODING -1
SWIDTH 0 0
DWIDTH 0 0
BBX 1 3 2 23
BITMAP
80
80
80
ENDCHAR
STARTCHAR gravecomb.case
ENCODING -1
SWIDTH 0 0
DWIDTH 0 0
BBX 2 3 2 23
BITMAP
80
50
20
ENDCHAR
STARTCHAR uni030A.case
ENCODING -1
SWIDTH 0 0
DWIDTH 0 0
BBX 4 4 2 23
BITMAP
68
85
85
68
ENDCHAR
STARTCHAR tildecomb.case
ENCODING -1
SWIDTH 0 0
DWIDTH 0 0
BBX 6 2 2 23
BITMAP
6850
8680
ENDCHAR
ENDFONT
